<svg
   xmlns:dc="http://purl.org/dc/elements/1.1/"
   xmlns:cc="http://creativecommons.org/ns#"
   xmlns:rdf="http://www.w3.org/1999/02/22-rdf-syntax-ns#"
   xmlns:svg="http://www.w3.org/2000/svg"
   xmlns="http://www.w3.org/2000/svg"
   xmlns:sodipodi="http://sodipodi.sourceforge.net/DTD/sodipodi-0.dtd"
   xmlns:inkscape="http://www.inkscape.org/namespaces/inkscape"
   version="1.1"
   id="Layer_1"
   x="0px"
   y="0px"
   width="1000"
   height="362.02701"
   viewBox="-215.549 -86.179 1000 362.02701"
   enable-background="new -215.549 -86.179 1000 402.077"
   xml:space="preserve"
   inkscape:version="0.91 r13725"
   sodipodi:docname="Marvel Entertainment 2002 Wordmark.svg"><metadata
   id="metadata4837"><rdf:RDF><cc:Work
       rdf:about=""><dc:format>image/svg+xml</dc:format><dc:type
         rdf:resource="http://purl.org/dc/dcmitype/StillImage" /><dc:title></dc:title></cc:Work></rdf:RDF></metadata><defs
   id="defs4835" /><sodipodi:namedview
   pagecolor="#ffffff"
   bordercolor="#666666"
   borderopacity="1"
   objecttolerance="10"
   gridtolerance="10"
   guidetolerance="10"
   inkscape:pageopacity="0"
   inkscape:pageshadow="2"
   inkscape:window-width="1366"
   inkscape:window-height="705"
   id="namedview4833"
   showgrid="false"
   inkscape:zoom="0.584"
   inkscape:cx="487.48653"
   inkscape:cy="238.82686"
   inkscape:window-x="-8"
   inkscape:window-y="-8"
   inkscape:window-maximized="1"
   inkscape:current-layer="Layer_1" />
<g
   class="logo"
   id="g4819"
   style="fill:#fff"
   transform="matrix(1.0640233,0,0,1.0640233,-19.401612,-27.882786)">

	<polyline
   points="514.01,-54.726 626.046,-54.726 626.134,16.094 574.757,16.094 574.757,82.015 626.158,82.002    626.158,151.415 574.834,151.425 574.795,216.377 626.046,216.377 626.046,285.321 514.113,285.386 514.01,-54.726  "
   class="logo"
   id="polyline4823"
   style="fill:#fff" />
	<polyline
   points="646.186,285.455 755.484,285.455 755.484,216.564 703.854,216.564 703.854,-54.726    646.21,-54.591 646.186,285.455  "
   class="logo"
   id="polyline4825"
   style="fill:#fff" />
	<path
   d="m 257.373,9.06 c 0,18.347 0,82.079 0,101.027 13.482,-1.661 37.094,-11.899 37.094,-52.566 0,-40.666 -23.229,-48.461 -37.094,-48.461 m 257.145,-63.786 -52.691,340.079 -68.684,0 -38.178,-231.976 c 1.068,70.16 -36.742,100.475 -36.742,100.475 l 42.75,131.469 -59.718,0 L 264.761,175 l -7.361,0.181 0,110.144 -60.101,0 0,-339.873 c 0,0 79.16,-0.392 89.914,-0.176 24.497,0.495 47.96,34.936 60.989,66.453 l -8.739,-66.453 60.353,0 27.104,187.46 27.677,-187.46 59.922,0 0,-0.002 z"
   class="logo"
   id="path4827"
   style="fill:#fff"
   inkscape:connector-curvature="0" />
	<polyline
   points="-62.89,285.403 -34.967,147.204 -34.967,285.321 26.246,285.321 26.246,-54.726 -51.139,-54.726    -79.052,98.119 -106.964,-54.726 -184.345,-54.726 -184.345,285.321 -123.115,285.321 -123.115,147.204 -95.206,285.403    -62.89,285.403  "
   class="logo"
   id="polyline4829"
   style="fill:#fff" />
	<path
   d="m 111.361,75.686 -15.664,112.889 31.832,0 -16.168,-112.889 m -23.993,176.685 -6.369,32.95 -57.289,0 48.465,-340.047 77.381,0 48.487,340.043 -57.303,0 -6.357,-32.949 -47.015,0 0,0.003 0,0 z"
   class="logo"
   id="path4831"
   style="fill:#fff"
   inkscape:connector-curvature="0" />
</g>
</svg>
